<?xml version="1.0" standalone="no"?>
<!DOCTYPE svg PUBLIC "-//W3C//DTD SVG 20010904//EN"
 "http://www.w3.org/TR/2001/REC-SVG-20010904/DTD/svg10.dtd">
<svg version="1.0" xmlns="http://www.w3.org/2000/svg"
 width="285.000000pt" height="285.000000pt" viewBox="0 0 285.000000 285.000000"
 preserveAspectRatio="xMidYMid meet">
<metadata>
Created by potrace 1.14, written by Peter Selinger 2001-2017
</metadata>
<g transform="translate(0.000000,285.000000) scale(0.100000,-0.100000)"
fill="#000000" stroke="none">
<path d="M1342 2121 c2 -20 -4 -31 -14 -28 -14 2 -12 -62 2 -77 5 -5 6 -14 4
-21 -3 -7 -1 -16 5 -20 6 -3 11 -12 11 -20 0 -8 11 -26 26 -40 14 -14 22 -30
19 -35 -3 -6 1 -10 10 -10 8 0 23 -13 34 -30 10 -16 21 -27 24 -23 4 3 7 -1 7
-11 0 -13 8 -16 34 -14 19 1 33 5 30 9 -2 4 12 13 31 19 19 6 34 17 32 23 -1
7 4 11 11 10 6 -2 12 6 12 17 0 18 41 46 62 42 4 -1 4 6 1 15 -4 11 -3 14 5 9
7 -4 12 -2 12 3 0 6 10 21 21 32 17 17 19 23 8 30 -8 5 -9 9 -3 9 20 0 13 49
-7 55 -10 4 -18 11 -16 18 1 7 -19 13 -55 15 -50 3 -57 1 -63 -18 -4 -12 -9
-19 -12 -16 -3 3 -18 -9 -33 -26 l-27 -31 -7 27 c-3 14 -13 26 -21 26 -8 0
-15 6 -15 13 0 18 -60 50 -97 52 -17 1 -32 -1 -31 -4z"/>
<path d="M2090 1890 c-8 -5 -11 -10 -7 -10 5 0 1 -7 -7 -16 -9 -8 -16 -21 -16
-29 0 -7 -9 -15 -21 -18 -12 -3 -18 -10 -15 -15 10 -16 -49 -23 -234 -30 -40
-2 -51 -5 -40 -12 12 -8 12 -10 -5 -11 -47 -2 -68 -11 -101 -44 -19 -19 -37
-35 -40 -35 -13 0 -30 -26 -26 -39 3 -9 0 -11 -7 -6 -8 4 -14 -1 -18 -14 -3
-12 -10 -21 -15 -21 -5 0 -6 -6 -2 -12 6 -10 3 -9 -8 0 -9 7 -20 27 -23 43 -4
16 -11 27 -16 23 -5 -3 -9 -1 -9 5 0 6 -11 13 -25 17 -14 3 -23 10 -20 14 2 4
-22 16 -55 27 -32 10 -56 14 -52 9 3 -6 -1 -5 -10 2 -9 7 -56 15 -114 18 -185
9 -208 12 -220 28 -6 9 -13 13 -17 10 -6 -7 -90 17 -98 28 -3 4 -20 10 -38 12
-29 3 -35 0 -45 -25 -7 -16 -15 -27 -18 -24 -3 3 3 -20 13 -52 11 -31 25 -61
32 -65 9 -6 9 -8 -1 -8 -10 0 -9 -4 2 -16 9 -8 14 -20 10 -25 -3 -6 0 -17 8
-26 7 -9 12 -18 11 -20 -2 -1 -3 -11 -3 -20 0 -15 2 -16 10 -3 8 13 10 13 10
-2 0 -25 22 -68 31 -63 4 3 10 -3 14 -12 5 -17 90 -78 108 -78 4 0 11 -5 15
-11 4 -6 24 -17 44 -23 20 -7 38 -17 40 -23 6 -16 208 -13 208 3 0 4 9 9 20
12 11 3 20 1 20 -5 0 -5 5 -6 10 -3 6 3 10 -1 10 -10 0 -10 -5 -13 -12 -9 -7
5 -8 3 -2 -7 12 -20 14 -38 3 -45 -5 -3 -9 -13 -9 -22 0 -15 2 -15 10 -2 7 12
9 10 7 -7 0 -12 -4 -20 -7 -18 -4 2 -7 -2 -7 -10 0 -8 3 -12 7 -10 3 2 6 -7 6
-20 0 -16 -5 -21 -15 -18 -12 3 -11 1 2 -7 9 -6 17 -16 17 -23 1 -40 109 -66
134 -32 11 15 13 15 25 2 9 -12 9 -17 -1 -23 -21 -13 -89 -14 -112 -1 -12 6
-25 10 -29 9 -5 -1 -6 2 -2 7 3 6 -7 13 -22 16 -15 3 -41 13 -58 21 -24 11
-121 17 -111 6 2 -1 -15 -21 -36 -43 -27 -28 -36 -44 -28 -49 15 -9 15 -11 2
-36 -8 -15 -8 -27 2 -45 7 -14 11 -29 9 -35 -2 -7 5 -14 17 -17 11 -3 20 -12
20 -20 0 -8 11 -18 25 -21 14 -4 23 -10 20 -15 -2 -5 6 -12 20 -15 14 -4 25
-10 25 -14 0 -4 17 -6 38 -4 28 2 33 1 22 -7 -8 -6 -10 -11 -4 -11 5 0 15 5
22 12 7 7 12 8 12 2 0 -9 29 -13 135 -15 61 -1 104 4 99 13 -3 4 3 9 13 10 33
2 38 3 51 11 6 5 17 5 22 2 6 -3 10 1 10 9 0 9 11 18 25 22 14 4 24 11 22 17
-2 6 7 20 20 32 17 15 25 34 29 74 7 65 -2 121 -20 121 -8 0 -19 6 -25 14 -12
14 -154 20 -146 5 4 -5 -46 -29 -61 -29 -2 0 3 18 11 40 8 22 11 40 7 40 -4 0
0 5 8 10 10 6 11 10 3 10 -7 0 -13 5 -13 11 0 5 6 7 13 3 9 -6 8 -3 -1 8 -7 9
-12 32 -10 50 l3 33 80 0 c44 0 86 -4 93 -9 7 -5 12 -4 12 3 0 6 9 11 19 11
27 0 52 11 46 19 -2 4 2 8 10 8 8 0 12 -4 9 -8 -2 -4 16 3 40 16 24 13 48 20
52 17 4 -4 4 -2 0 5 -7 13 31 40 49 34 5 -1 7 0 3 4 -9 9 25 43 37 37 6 -3 7
-1 2 3 -4 5 -1 15 7 24 14 16 16 20 16 44 0 8 4 7 10 -3 8 -13 10 -12 10 3 0
10 7 34 17 55 9 20 17 39 17 42 1 3 4 10 8 15 3 6 9 27 13 48 4 20 11 37 16
37 5 0 9 10 9 23 0 12 14 41 30 65 22 33 27 49 21 65 -5 12 -10 27 -11 32 -4
14 -71 18 -90 5z"/>
</g>
</svg>
